<svg width="1440" height="804" viewBox="0 0 1440 804" fill="none" xmlns="http://www.w3.org/2000/svg">
<g clip-path="url(#clip0)">
<path d="M248.805 181.977C262.102 178.481 276.052 179.224 289.507 181.362C298.357 183.11 306.817 186.336 315.255 189.464C324.585 192.577 334.08 195.36 343.822 196.838C350.812 197.978 357.705 199.854 364.177 202.757C371.632 206.125 379.222 209.313 386.16 213.694C396.555 220.258 406.582 227.385 416.925 234.024C428.715 241.721 438.262 252.155 448.71 261.465C458.272 270.174 467.422 279.439 478.125 286.79C487.162 292.904 496.567 298.448 506.025 303.887C517.935 310.983 529.732 318.252 541.725 325.199C552.63 331.92 563.82 338.282 573.735 346.466C582.082 353.405 590.37 360.442 599.257 366.691C607.222 372.557 615.525 378.161 624.855 381.604C640.38 387.575 652.897 398.828 665.895 408.828C674.962 416.307 684.69 423.043 695.227 428.279C697.312 429.285 699.525 429.99 701.752 430.627C694.365 440.357 686.865 450.012 679.575 459.816C671.137 471.609 662.407 483.177 653.925 494.932C645.997 506.087 637.095 516.529 627.81 526.559C616.597 537.106 605.46 547.751 593.767 557.766C586.312 563.834 578.865 569.918 571.23 575.755C566.82 578.89 562.65 582.529 557.52 584.472C548.925 576.13 539.655 568.523 530.895 560.361C521.355 551.869 512.197 542.882 501.75 535.478C490.042 526.761 477.405 518.974 463.417 514.526C455.257 511.653 446.745 510.04 438.33 508.112C432.015 506.589 425.872 504.444 419.55 502.943C412.2 501.188 405.067 498.608 397.657 497.07C370.042 491.428 343.38 482.006 315.817 476.17C307.282 474.685 298.785 472.989 290.205 471.797C278.55 470.266 266.925 468.293 255.6 465.09C249.232 463.245 242.812 461.587 236.52 459.509C226.875 456.343 217.807 451.73 208.537 447.649C196.567 441.737 184.935 435.173 173.032 429.142C160.432 421.978 147.397 415.579 135.15 407.807C125.902 401.716 116.88 395.227 106.935 390.283C93.2925 382.497 78.2175 377.748 63.105 373.75C67.6125 370.307 70.02 365.01 73.425 360.607C79.5825 351.365 86.1825 342.438 92.7975 333.526C100.552 322.408 109.26 312.011 117.787 301.494C125.91 292.072 133.29 282.042 141.585 272.77C147.487 265.921 153.9 259.529 159.652 252.545C167.61 243.528 175.695 234.616 183.877 225.794C188.842 220.416 193.71 214.932 198.96 209.823C204.195 204.85 209.835 200.319 215.692 196.103C225.51 188.984 236.94 184.333 248.805 181.977Z" fill="#818181"/>
<path d="M412.282 205.173C420.615 204.31 428.902 206.073 437.145 207.056C442.875 207.753 448.657 208.099 454.32 209.261C461.625 210.604 468.48 213.552 475.5 215.885C487.905 220.131 500.107 225.42 510.667 233.312C515.077 237.903 520.147 241.796 524.542 246.41C537.105 259.417 550.042 272.425 565.627 281.832C572.52 286.746 579.292 291.847 586.642 296.078C596.7 302.544 608.197 306.198 618.465 312.267C625.53 316.085 632.707 320.226 640.785 321.389C647.137 322.319 653.58 322.551 660 322.679C672.532 322.634 683.55 315.98 694.935 311.637C702.157 308.958 708.982 305.358 715.71 301.637C723.42 297.301 729.855 290.999 737.797 287.039C745.192 282.935 753.382 280.64 761.137 277.339C776.655 271.007 793.62 269.38 809.167 263.131C816.795 260.198 824.332 256.717 832.537 255.734C839.932 254.909 847.027 252.598 854.317 251.188C860.887 249.898 867.375 248.232 873.945 246.912C881.827 245.434 889.747 244.159 897.637 242.734C907.132 240.903 916.852 240.851 926.415 239.493C931.305 239.26 936.225 239.613 941.1 238.96C944.422 238.525 947.64 237.528 950.932 236.897C957.135 235.63 963.6 235.832 969.675 233.859C974.842 232.194 979.987 230.401 985.305 229.238C993.727 227.07 1002.46 226.778 1011.1 226.088C1018.77 225.878 1026.4 225.067 1034.04 224.467L1034.77 224.415C1041.91 224.347 1049.23 223.942 1056.11 226.283C1061.31 227.528 1065.7 230.724 1070.73 232.434C1059.38 236.335 1049.64 243.476 1039.48 249.665C1031.88 254.436 1024.37 259.417 1017.4 265.089C1013.19 268.442 1008.73 271.503 1004.8 275.193C997.8 274.338 991.035 272.305 984.232 270.535C968.782 266.491 954.15 259.515 938.287 257.069C923.032 255.014 907.32 254.159 892.207 257.647C879.307 260.183 866.467 263.903 855.187 270.827C843.465 278.014 832.485 286.468 822.817 296.251C812.827 306.273 803.122 316.565 793.312 326.752C786.067 334.276 779.235 342.183 772.147 349.85C763.05 359.265 753.892 368.649 745.507 378.724C730.897 396 715.807 412.886 701.752 430.628C699.525 429.99 697.312 429.285 695.227 428.28C684.69 423.044 674.962 416.307 665.895 408.828C652.897 398.828 640.38 387.576 624.855 381.604C615.525 378.161 607.222 372.557 599.257 366.691C590.37 360.442 582.082 353.406 573.735 346.467C563.82 338.282 552.63 331.921 541.725 325.199C529.732 318.253 517.935 310.984 506.025 303.887C496.567 298.449 487.162 292.905 478.125 286.791C467.422 279.439 458.272 270.175 448.71 261.465C438.262 252.156 428.715 241.721 416.925 234.024C406.582 227.385 396.555 220.259 386.16 213.695C394.53 209.959 403.155 206.463 412.282 205.173Z" fill="#A6A6A6"/>
<path d="M912.975 230.716C906.608 227.911 901.222 223.44 895.282 219.899C889.08 216.051 883.245 211.58 876.51 208.661C868.238 205.031 860.917 199.682 853.942 194.018C847.98 188.452 840.3 185.481 833.505 181.145C826.53 176.712 817.628 178.872 810.503 174.889C804.015 171.386 797.58 167.357 790.215 166C784.312 164.987 778.298 165.009 772.358 164.357C767.633 163.914 762.825 163.674 758.175 164.777C748.283 166.922 738.12 168.64 728.955 173.119C722.865 176.232 718.192 181.355 713.565 186.261C706.402 193.448 699.69 201.182 694.44 209.899C691.327 214.933 688.185 219.989 684.33 224.497C679.268 230.424 673.29 235.48 668.13 241.301C662.34 248.315 657.345 255.952 651.54 262.951C645.112 270.093 637.065 275.944 627.99 279.207C623.123 280.977 617.49 281.203 612.758 278.915C609.128 277.152 605.835 274.781 602.22 272.996C596.663 270.228 591.622 266.589 586.357 263.326C580.395 259.635 575.055 255.059 569.197 251.218C564.51 248.038 559.545 245.097 555.765 240.806C543.308 229.989 530.76 219.261 519.068 207.611C511.38 199.442 502.448 192.638 493.598 185.819C488.085 181.911 482.693 177.792 477.945 172.961C468.51 163.546 459.608 153.502 452.31 142.317C446.978 133.825 441.93 125.13 437.557 116.098C434.04 109.017 430.845 101.778 427.027 94.8612C423.915 89.1525 419.978 83.9613 416.408 78.5451C410.445 69.4531 403.057 61.4038 395.287 53.8346C392.482 50.7589 389.565 47.7883 386.385 45.1027C379.485 38.4637 371.588 32.2673 362.07 30.0694C353.618 28.329 344.872 28.1339 336.562 25.6734C327.915 23.4379 320.363 17.5866 311.213 17.264C299.828 17.099 289.02 22.0501 279.87 28.479C270.023 36.1232 262.2 45.9354 254.543 55.6725C249.068 62.6341 243.653 69.6631 237.705 76.2271C230.25 85.7017 222.27 94.9287 212.678 102.325C207.893 105.994 203.4 110.015 198.825 113.938C198.27 114.613 197.745 115.326 197.228 116.031C193.133 118.679 189.458 121.92 185.243 124.388C179.378 127.741 173.468 131.027 167.828 134.755C160.883 139.744 155.415 146.443 150.27 153.194C144.33 160.928 137.558 168.122 129.435 173.606C122.693 178.977 115.717 184.048 108.217 188.324C101.872 192.458 94.7175 196.284 86.9175 195.984C78.96 195.631 70.485 195.736 63.3975 191.543C53.07 186.509 44.5275 178.745 36.09 171.108C30.72 166.39 25.545 161.453 20.145 156.772C15.1275 152.436 11.535 146.803 7.6725 141.484C5.25 138.086 2.3775 135.033 0 131.604V210.822V367.652C3.78 367.719 7.56 367.749 11.34 367.824C15.75 367.539 20.2275 368.214 24.5925 367.427C28.9275 365.566 32.1 361.86 35.6775 358.897C41.655 353.361 47.865 348.08 53.835 342.536C64.38 333.002 72.6825 321.366 82.23 310.909C87.405 305.83 92.325 300.512 97.38 295.313C104.587 287.909 112.718 281.45 121.328 275.749C126.338 272.268 131.01 268.285 136.357 265.292C144.045 260.911 151.635 256.312 159.652 252.546C167.61 243.529 175.695 234.617 183.877 225.795C188.842 220.417 193.71 214.933 198.96 209.824C204.195 204.851 209.835 200.32 215.692 196.104C225.51 188.985 236.94 184.334 248.805 181.978C262.102 178.482 276.053 179.225 289.508 181.363C298.358 183.111 306.817 186.337 315.255 189.465C324.585 192.578 334.08 195.361 343.822 196.839C350.812 197.979 357.705 199.855 364.178 202.758C371.633 206.126 379.223 209.314 386.16 213.695C394.53 209.959 403.155 206.463 412.283 205.173C420.615 204.31 428.902 206.073 437.145 207.056C442.875 207.754 448.658 208.099 454.32 209.262C461.625 210.604 468.48 213.553 475.5 215.886C487.905 220.132 500.108 225.42 510.668 233.312C515.078 237.903 520.148 241.796 524.543 246.41C537.105 259.418 550.042 272.426 565.627 281.833C572.52 286.746 579.293 291.847 586.643 296.078C596.7 302.545 608.197 306.198 618.465 312.267C625.53 316.085 632.708 320.226 640.785 321.389C647.138 322.319 653.58 322.552 660 322.679C672.532 322.634 683.55 315.98 694.935 311.637C702.158 308.959 708.983 305.358 715.71 301.637C723.42 297.301 729.855 291 737.797 287.039C745.192 282.935 753.382 280.64 761.137 277.339C776.655 271.008 793.62 269.38 809.168 263.131C816.795 260.198 824.333 256.717 832.538 255.734C839.933 254.909 847.027 252.599 854.317 251.188C860.887 249.898 867.375 248.233 873.945 246.912C881.828 245.435 889.747 244.159 897.637 242.734C907.132 240.904 916.852 240.851 926.415 239.493C922.627 235.615 917.888 232.899 912.975 230.716Z" fill="#CCCCCC"/>
<path d="M1407.94 298.284C1394.37 295.366 1380.37 294.533 1367.08 290.362C1361.2 288.554 1355.21 287.069 1349.57 284.593C1342.54 281.518 1335.53 278.337 1328.86 274.541C1311.99 265.059 1294.57 256.395 1278.8 245.105C1272.79 240.866 1266.31 237.37 1259.76 234.047C1246 228.323 1231.5 223.958 1216.57 222.907C1207.81 222.12 1199.01 222.69 1190.25 222.082C1181.74 221.655 1173.43 219.712 1165.17 217.799C1156.73 215.518 1147.99 213.598 1139.2 214.423C1134.67 214.828 1130.16 215.406 1125.64 215.826C1121.04 216.538 1116.43 217.349 1111.99 218.736L1111.45 218.894C1097.9 223.485 1083.72 226.291 1070.73 232.434C1059.38 236.335 1049.64 243.477 1039.48 249.666C1031.88 254.437 1024.37 259.418 1017.4 265.089C1013.19 268.442 1008.73 271.503 1004.8 275.194C1018.96 277.099 1032.48 281.945 1045.32 288.059C1056.71 292.815 1066.88 299.874 1077.29 306.408C1089.34 314.608 1102.38 321.419 1113.52 330.916C1122.75 338.403 1131.07 346.902 1140.24 354.471C1154.47 367.194 1168.9 380 1185.67 389.347C1198.93 397.148 1212.42 404.545 1225.76 412.204C1231.98 415.31 1237.54 419.638 1243.99 422.316C1255.23 412.152 1266.92 402.505 1278.36 392.565C1289.1 383.675 1299.94 374.808 1311.89 367.584C1318.93 363.338 1325.74 358.635 1333.26 355.237C1339.93 352.183 1346.81 349.595 1353.72 347.12C1363.7 343.797 1373.62 340.016 1384.07 338.433C1394.65 336.768 1405.27 335.057 1415.99 334.877C1424.05 335.11 1432.09 336.22 1440 337.765V306.896C1429.39 303.768 1418.78 300.534 1407.94 298.284Z" fill="#818181"/>
<path d="M1424.59 38.5233C1419.36 35.6651 1414.97 31.5617 1409.88 28.4861C1401.88 23.6175 1394.9 17.136 1386.48 12.9501C1378.02 9.34931 1369.55 5.74852 1360.96 2.45529C1360.01 2.13272 1359.06 1.82515 1358.13 1.56259C1351.24 0.294809 1344.2 0.0697572 1337.22 0.00224221C1331.7 -0.0952794 1326.86 3.00291 1322.83 6.45368C1316.75 11.4123 1312.51 18.0963 1307.59 24.1126C1299.23 35.2301 1290.69 46.2275 1281.68 56.8274C1275.46 64.044 1268.08 70.2103 1262.39 77.8995C1261.31 79.2273 1260.21 80.5401 1259.15 81.8679C1251.29 91.6951 1244.62 102.452 1236.15 111.792C1227.8 120.697 1218.38 128.581 1210.61 138.018C1204.23 146.817 1197.47 155.467 1188.95 162.316C1185.43 165.774 1181.66 168.962 1177.65 171.82C1172.77 175.361 1169.15 180.32 1164.21 183.793C1163.91 182.42 1157.88 193.635 1155.17 194.258C1153.17 195.196 1152 197.206 1150.67 198.871C1146.95 204.13 1142.84 209.096 1139.21 214.422C1148 213.597 1156.73 215.518 1165.17 217.798C1173.43 219.711 1181.75 221.654 1190.25 222.081C1199.01 222.689 1207.81 222.119 1216.57 222.907C1231.5 223.957 1246.01 228.323 1259.76 234.047C1266.31 237.37 1272.8 240.866 1278.8 245.104C1294.58 256.394 1311.99 265.059 1328.86 274.541C1335.53 278.336 1342.54 281.517 1349.57 284.593C1355.21 287.068 1361.21 288.554 1367.08 290.362C1380.38 294.533 1394.37 295.365 1407.95 298.283C1418.78 300.534 1429.39 303.767 1440 306.895V226.425V79.1298V49.9558C1435.17 45.7624 1430.25 41.5765 1424.59 38.5233Z" fill="#CCCCCC"/>
<path d="M136.358 265.291C144.045 260.91 151.635 256.312 159.653 252.546C153.9 259.53 147.488 265.921 141.585 272.771C133.29 282.043 125.91 292.072 117.788 301.494C109.26 312.012 100.553 322.409 92.7976 333.526C86.1826 342.438 79.5826 351.365 73.4251 360.607C70.0201 365.011 67.6126 370.307 63.1051 373.75C55.8826 371.515 48.3451 370.682 40.8976 369.534C31.1176 368.079 21.2026 368.079 11.3401 367.824C15.7501 367.539 20.2276 368.214 24.5926 367.426C28.9276 365.566 32.1001 361.86 35.6776 358.897C41.6551 353.361 47.8651 348.08 53.8351 342.536C64.3801 333.001 72.6826 321.366 82.2301 310.909C87.4051 305.83 92.3251 300.512 97.3801 295.313C104.588 287.909 112.718 281.45 121.328 275.749C126.338 272.268 131.01 268.284 136.358 265.291Z" fill="#A6A6A6"/>
<path d="M892.208 257.647C907.32 254.158 923.033 255.014 938.288 257.069C954.15 259.515 968.783 266.491 984.233 270.535C991.035 272.305 997.8 274.338 1004.81 275.193C1018.96 277.099 1032.48 281.945 1045.32 288.058C1056.71 292.815 1066.88 299.874 1077.29 306.408C1089.35 314.607 1102.38 321.418 1113.53 330.915C1122.75 338.402 1131.08 346.902 1140.24 354.471C1154.48 367.194 1168.9 379.999 1185.67 389.346C1198.93 397.148 1212.42 404.544 1225.76 412.204C1231.98 415.309 1237.55 419.638 1243.99 422.316C1234.67 429.847 1225.46 437.507 1216.49 445.443C1206 454.273 1194.86 462.292 1184.34 471.069C1178.74 475.518 1172.93 479.689 1167.16 483.889C1156.58 491.001 1145.63 497.565 1134.41 503.619C1127.7 507.43 1120.79 510.888 1114.26 515.021C1106.81 519.545 1099.71 524.638 1092.01 528.749C1082.09 534.593 1071.84 539.837 1061.36 544.6C1054.77 547.414 1047.89 549.484 1041.33 552.372C1028.81 557.428 1016.06 562.019 1004.1 568.343C997.065 572.462 990.008 576.61 983.445 581.456C963.18 597.397 944.955 616.046 922.95 629.714C910.425 637.313 896.895 643.015 884.123 650.149C873.135 656.3 861.683 661.559 850.028 666.307C836.61 672.444 822.803 677.8 808.598 681.821C800.205 683.816 791.693 685.924 783 685.669C764.783 685.587 746.468 685.122 728.43 682.384C715.043 679.24 702.075 674.379 689.55 668.73C676.553 663.292 664.373 656.135 652.275 648.971C639.908 642.017 628.493 633.525 616.095 626.631C606.48 620.097 596.37 614.381 586.478 608.297C575.663 601.891 566.543 593.121 557.52 584.472C562.65 582.529 566.82 578.891 571.23 575.755C578.865 569.919 586.313 563.835 593.768 557.766C605.46 547.751 616.598 537.106 627.81 526.559C637.095 516.529 645.998 506.087 653.925 494.932C662.408 483.177 671.138 471.609 679.575 459.817C686.865 450.012 694.365 440.357 701.753 430.628C715.808 412.886 730.898 396 745.508 378.724C753.893 368.649 763.05 359.264 772.148 349.85C779.235 342.183 786.068 334.276 793.313 326.752C803.123 316.565 812.828 306.273 822.818 296.25C832.485 286.468 843.465 278.014 855.188 270.827C866.468 263.903 879.308 260.182 892.208 257.647Z" fill="#5A5A5A"/>
<path d="M1415.99 334.877C1405.27 335.057 1394.65 336.767 1384.07 338.432C1373.62 340.015 1363.7 343.796 1353.72 347.119C1346.81 349.595 1339.94 352.183 1333.26 355.236C1325.74 358.634 1318.93 363.338 1311.89 367.584C1299.94 374.808 1289.1 383.675 1278.36 392.564C1266.92 402.504 1255.23 412.151 1243.99 422.316C1234.67 429.848 1225.45 437.507 1216.48 445.444C1206 454.273 1194.86 462.292 1184.34 471.069C1178.74 475.518 1172.93 479.689 1167.16 483.89C1156.57 491.001 1145.63 497.565 1134.41 503.619C1127.7 507.43 1120.79 510.888 1114.26 515.022C1106.81 519.545 1099.71 524.639 1092.01 528.75C1082.09 534.593 1071.84 539.837 1061.36 544.601C1054.77 547.414 1047.89 549.484 1041.33 552.372C1028.81 557.429 1016.06 562.02 1004.1 568.343C997.065 572.462 990.008 576.61 983.445 581.456C963.18 597.397 944.955 616.047 922.95 629.715C910.425 637.314 896.895 643.015 884.122 650.149C873.135 656.3 861.682 661.559 850.027 666.308C836.61 672.444 822.803 677.8 808.598 681.821C800.205 683.817 791.693 685.924 783 685.669C764.782 685.587 746.467 685.122 728.43 682.384C715.042 679.241 702.075 674.379 689.55 668.731C676.553 663.292 664.373 656.135 652.275 648.971C639.908 642.017 628.493 633.525 616.095 626.631C606.48 620.097 596.37 614.381 586.477 608.297C575.662 601.891 566.542 593.121 557.52 584.472C548.925 576.13 539.655 568.524 530.895 560.362C521.355 551.87 512.198 542.883 501.75 535.479C490.043 526.762 477.405 518.975 463.418 514.527C455.258 511.653 446.745 510.041 438.33 508.113C432.015 506.59 425.873 504.444 419.55 502.944C412.2 501.189 405.068 498.608 397.658 497.07C370.043 491.429 343.38 482.007 315.817 476.171C307.282 474.685 298.785 472.99 290.205 471.797C278.55 470.267 266.925 468.294 255.6 465.091C249.232 463.245 242.812 461.587 236.52 459.509C226.875 456.344 217.807 451.73 208.537 447.649C196.567 441.738 184.935 435.174 173.033 429.143C160.433 421.978 147.397 415.58 135.15 407.808C125.902 401.717 116.88 395.228 106.935 390.284C93.2925 382.497 78.2175 377.749 63.105 373.75C55.8825 371.515 48.345 370.682 40.8975 369.534C31.1175 368.079 21.2025 368.079 11.34 367.824C7.56 367.749 3.78 367.719 0 367.651V789.41V922.579H1440V772.471V337.765C1432.09 336.219 1424.05 335.109 1415.99 334.877Z" fill="#323232"/>
</g>
<defs>
<clipPath id="clip0">
<rect width="1440" height="804" fill="white"/>
</clipPath>
</defs>
</svg>
