<svg width="1440" height="900" viewBox="0 0 1440 900" fill="none" xmlns="http://www.w3.org/2000/svg">
<path d="M248.805 159.725C262.103 156.229 276.053 156.971 289.508 159.109C298.358 160.857 306.818 164.083 315.255 167.211C324.585 170.324 334.08 173.108 343.823 174.585C350.813 175.726 357.705 177.601 364.178 180.504C371.633 183.872 379.223 187.061 386.16 191.442C396.555 198.006 406.583 205.132 416.925 211.771C428.715 219.468 438.263 229.903 448.71 239.212C458.273 247.922 467.423 257.186 478.125 264.538C487.163 270.652 496.568 276.195 506.025 281.634C517.935 288.731 529.733 296 541.725 302.946C552.63 309.668 563.82 316.029 573.735 324.214C582.083 331.153 590.37 338.189 599.258 344.438C607.223 350.304 615.525 355.908 624.855 359.351C640.38 365.323 652.898 376.575 665.895 386.575C674.963 394.054 684.69 400.791 695.228 406.027C697.313 407.032 699.525 407.737 701.753 408.375C694.365 418.104 686.865 427.759 679.575 437.564C671.138 449.356 662.408 460.924 653.925 472.679C645.998 483.834 637.095 494.276 627.81 504.306C616.598 514.853 605.46 525.498 593.768 535.513C586.313 541.582 578.865 547.666 571.23 553.502C566.82 556.638 562.65 560.276 557.52 562.219C548.925 553.877 539.655 546.27 530.895 538.108C521.355 529.617 512.198 520.63 501.75 513.225C490.043 504.508 477.405 496.722 463.418 492.273C455.258 489.4 446.745 487.787 438.33 485.859C432.015 484.337 425.873 482.191 419.55 480.691C412.2 478.935 405.068 476.355 397.658 474.817C370.043 469.176 343.38 459.754 315.818 453.917C307.283 452.432 298.785 450.737 290.205 449.544C278.55 448.013 266.925 446.041 255.6 442.837C249.233 440.992 242.813 439.334 236.52 437.256C226.875 434.09 217.808 429.477 208.538 425.396C196.568 419.485 184.935 412.921 173.033 406.889C160.433 399.725 147.398 393.326 135.15 385.555C125.903 379.463 116.88 372.974 106.935 368.031C93.293 360.244 78.218 355.495 63.1055 351.497C67.613 348.054 70.0205 342.758 73.4255 338.354C79.583 329.112 86.183 320.185 92.798 311.273C100.553 300.156 109.26 289.758 117.788 279.241C125.91 269.819 133.29 259.789 141.585 250.517C147.488 243.668 153.9 237.277 159.653 230.293C167.61 221.276 175.695 212.364 183.878 203.542C188.843 198.163 193.71 192.679 198.96 187.571C204.195 182.597 209.835 178.066 215.693 173.85C225.51 166.731 236.94 162.08 248.805 159.725Z" fill="#9B9B9B"/>
<path d="M412.283 182.921C420.615 182.058 428.903 183.821 437.145 184.804C442.875 185.502 448.658 185.847 454.32 187.009C461.625 188.352 468.48 191.3 475.5 193.633C487.905 197.879 500.108 203.168 510.668 211.06C515.078 215.651 520.148 219.544 524.543 224.158C537.105 237.165 550.043 250.173 565.628 259.58C572.52 264.494 579.293 269.595 586.643 273.826C596.7 280.293 608.198 283.946 618.465 290.015C625.53 293.833 632.708 297.974 640.785 299.137C647.138 300.067 653.58 300.299 660 300.427C672.533 300.382 683.55 293.728 694.935 289.385C702.158 286.706 708.983 283.106 715.71 279.385C723.42 275.049 729.855 268.747 737.798 264.787C745.193 260.683 753.383 258.388 761.138 255.087C776.655 248.756 793.62 247.128 809.168 240.879C816.795 237.946 824.333 234.465 832.538 233.482C839.933 232.657 847.028 230.346 854.318 228.936C860.888 227.646 867.375 225.981 873.945 224.66C881.828 223.182 889.748 221.907 897.638 220.482C907.133 218.651 916.853 218.599 926.415 217.241C931.305 217.009 936.225 217.361 941.1 216.708C944.423 216.273 947.64 215.276 950.933 214.646C957.135 213.378 963.6 213.58 969.675 211.607C974.843 209.942 979.988 208.149 985.305 206.986C993.728 204.818 1002.47 204.526 1011.11 203.836C1018.77 203.626 1026.4 202.815 1034.04 202.215L1034.77 202.163C1041.91 202.095 1049.24 201.69 1056.11 204.031C1061.31 205.276 1065.71 208.472 1070.73 210.182C1059.38 214.083 1049.64 221.224 1039.49 227.413C1031.88 232.184 1024.37 237.165 1017.4 242.837C1013.19 246.19 1008.74 249.251 1004.81 252.941C997.8 252.086 991.035 250.053 984.233 248.283C968.783 244.24 954.15 237.263 938.288 234.817C923.033 232.762 907.32 231.907 892.208 235.395C879.308 237.931 866.468 241.651 855.188 248.576C843.465 255.762 832.485 264.216 822.818 273.999C812.828 284.021 803.123 294.313 793.313 304.5C786.068 312.025 779.235 319.931 772.148 327.598C763.05 337.013 753.893 346.397 745.508 356.472C730.898 373.748 715.808 390.634 701.753 408.376C699.525 407.738 697.313 407.033 695.228 406.028C684.69 400.792 674.963 394.055 665.895 386.576C652.898 376.576 640.38 365.324 624.855 359.353C615.525 355.909 607.223 350.306 599.258 344.439C590.37 338.19 582.083 331.154 573.735 324.215C563.82 316.03 552.63 309.669 541.725 302.948C529.733 296.001 517.935 288.732 506.025 281.635C496.568 276.197 487.163 270.653 478.125 264.539C467.423 257.187 458.273 247.923 448.71 239.213C438.263 229.904 428.715 219.469 416.925 211.772C406.583 205.133 396.555 198.007 386.16 191.443C394.53 187.707 403.155 184.211 412.283 182.921Z" fill="#C7C7C7"/>
<path d="M912.975 208.464C906.607 205.658 901.222 201.187 895.282 197.646C889.08 193.798 883.245 189.327 876.51 186.409C868.237 182.778 860.917 177.429 853.942 171.765C847.98 166.199 840.3 163.229 833.505 158.893C826.53 154.459 817.627 156.62 810.502 152.636C804.015 149.133 797.58 145.105 790.215 143.747C784.312 142.734 778.297 142.757 772.357 142.104C767.632 141.661 762.825 141.421 758.175 142.524C748.282 144.669 738.12 146.387 728.955 150.866C722.865 153.979 718.192 159.103 713.565 164.009C706.402 171.195 699.69 178.93 694.44 187.647C691.327 192.68 688.185 197.736 684.33 202.245C679.267 208.171 673.29 213.227 668.13 219.048C662.34 226.063 657.345 233.699 651.54 240.698C645.112 247.84 637.065 253.691 627.99 256.954C623.122 258.725 617.49 258.95 612.757 256.662C609.127 254.899 605.835 252.528 602.22 250.743C596.662 247.975 591.622 244.337 586.357 241.073C580.395 237.383 575.055 232.807 569.197 228.966C564.51 225.785 559.545 222.844 555.765 218.553C543.307 207.736 530.76 197.009 519.067 185.359C511.38 177.189 502.447 170.385 493.597 163.566C488.085 159.658 482.692 155.539 477.945 150.708C468.51 141.294 459.607 131.249 452.31 120.064C446.977 111.572 441.93 102.878 437.557 93.8457C434.04 86.7642 430.845 79.5251 427.027 72.6085C423.915 66.8998 419.977 61.7086 416.407 56.2924C410.445 47.2004 403.057 39.1511 395.287 31.5819C392.482 28.5063 389.565 25.5356 386.385 22.85C379.485 16.211 371.587 10.0147 362.07 7.81667C353.617 6.07629 344.872 5.88125 336.562 3.4207C327.915 1.18521 320.362 -4.6661 311.212 -4.98867C299.827 -5.1537 289.02 -0.202598 279.87 6.22633C270.022 13.8705 262.2 23.6827 254.542 33.4198C249.067 40.3814 243.652 47.4104 237.705 53.9744C230.25 63.449 222.27 72.676 212.677 80.0727C207.892 83.741 203.4 87.7619 198.825 91.6852C198.27 92.3604 197.745 93.0731 197.227 93.7782C193.132 96.4263 189.457 99.667 185.242 102.135C179.377 105.488 173.467 108.774 167.827 112.502C160.882 117.491 155.415 124.19 150.27 130.941C144.33 138.676 137.557 145.87 129.435 151.353C122.692 156.725 115.717 161.796 108.217 166.072C101.872 170.205 94.7175 174.031 86.9175 173.731C78.96 173.378 70.485 173.483 63.3975 169.29C53.07 164.256 44.5275 156.492 36.09 148.855C30.72 144.137 25.545 139.201 20.145 134.52C15.1275 130.184 11.535 124.55 7.6725 119.231C5.25 115.833 2.3775 112.78 0 109.352V188.569V345.399C3.78 345.466 7.56 345.496 11.34 345.571C15.75 345.286 20.2275 345.962 24.5925 345.174C28.9275 343.314 32.1 339.608 35.6775 336.645C41.655 331.108 47.865 325.827 53.835 320.283C64.38 310.749 72.6825 299.114 82.23 288.656C87.405 283.578 92.325 278.259 97.38 273.06C104.587 265.656 112.717 259.197 121.327 253.496C126.337 250.015 131.01 246.032 136.357 243.039C144.045 238.658 151.635 234.059 159.652 230.293C167.61 221.276 175.695 212.364 183.877 203.543C188.842 198.164 193.71 192.68 198.96 187.571C204.195 182.598 209.835 178.067 215.692 173.851C225.51 166.732 236.94 162.081 248.805 159.725C262.102 156.23 276.052 156.972 289.507 159.11C298.357 160.858 306.817 164.084 315.255 167.212C324.585 170.325 334.08 173.108 343.822 174.586C350.812 175.726 357.705 177.602 364.177 180.505C371.632 183.873 379.222 187.061 386.16 191.442C394.53 187.707 403.155 184.211 412.282 182.92C420.615 182.058 428.902 183.821 437.145 184.803C442.875 185.501 448.657 185.846 454.32 187.009C461.625 188.352 468.48 191.3 475.5 193.633C487.905 197.879 500.107 203.167 510.667 211.059C515.077 215.65 520.147 219.544 524.542 224.157C537.105 237.165 550.042 250.173 565.627 259.58C572.52 264.494 579.292 269.595 586.642 273.826C596.7 280.292 608.197 283.945 618.465 290.014C625.53 293.833 632.707 297.973 640.785 299.136C647.137 300.066 653.58 300.299 660 300.426C672.532 300.381 683.55 293.728 694.935 289.384C702.157 286.706 708.982 283.105 715.71 279.384C723.42 275.048 729.855 268.747 737.797 264.786C745.192 260.683 753.382 258.387 761.137 255.086C776.655 248.755 793.62 247.127 809.167 240.878C816.795 237.945 824.332 234.464 832.537 233.482C839.932 232.656 847.027 230.346 854.317 228.936C860.887 227.645 867.375 225.98 873.945 224.66C881.827 223.182 889.747 221.907 897.637 220.481C907.132 218.651 916.852 218.598 926.415 217.241C922.627 213.362 917.887 210.647 912.975 208.464Z" fill="#E7E7E7"/>
<path d="M1407.94 276.032C1394.37 273.114 1380.37 272.281 1367.08 268.11C1361.2 266.302 1355.21 264.817 1349.57 262.341C1342.54 259.266 1335.53 256.085 1328.86 252.289C1311.99 242.807 1294.57 234.143 1278.8 222.853C1272.79 218.614 1266.31 215.118 1259.76 211.795C1246 206.071 1231.5 201.705 1216.57 200.655C1207.81 199.868 1199.01 200.438 1190.25 199.83C1181.74 199.402 1173.43 197.46 1165.17 195.547C1156.73 193.266 1147.99 191.346 1139.2 192.171C1134.67 192.576 1130.16 193.154 1125.64 193.574C1121.04 194.286 1116.43 195.096 1111.99 196.484L1111.45 196.642C1097.9 201.233 1083.72 204.038 1070.73 210.182C1059.38 214.083 1049.64 221.225 1039.48 227.414C1031.88 232.185 1024.37 237.166 1017.4 242.837C1013.19 246.19 1008.73 249.251 1004.8 252.942C1018.96 254.847 1032.48 259.693 1045.32 265.807C1056.71 270.563 1066.88 277.622 1077.29 284.156C1089.34 292.356 1102.38 299.167 1113.52 308.664C1122.75 316.151 1131.07 324.65 1140.24 332.219C1154.47 344.942 1168.9 357.748 1185.67 367.095C1198.93 374.896 1212.42 382.293 1225.76 389.952C1231.98 393.058 1237.54 397.386 1243.99 400.064C1255.23 389.9 1266.92 380.253 1278.36 370.313C1289.1 361.423 1299.94 352.556 1311.89 345.332C1318.93 341.086 1325.74 336.383 1333.26 332.985C1339.93 329.931 1346.81 327.343 1353.72 324.868C1363.7 321.545 1373.62 317.764 1384.07 316.181C1394.65 314.515 1405.27 312.805 1415.99 312.625C1424.05 312.858 1432.09 313.968 1440 315.513V284.644C1429.39 281.516 1418.78 278.282 1407.94 276.032Z" fill="#9B9B9B"/>
<path d="M1424.58 16.2712C1419.36 13.4131 1414.96 9.30967 1409.88 6.23398C1401.87 1.36541 1394.9 -5.11604 1386.48 -9.30197C1378.02 -12.9028 1369.54 -16.5036 1360.95 -19.7968C1360 -20.1194 1359.06 -20.4269 1358.13 -20.6895C1351.23 -21.9573 1344.2 -22.1823 1337.22 -22.2498C1331.7 -22.3474 1326.86 -19.2492 1322.82 -15.7984C1316.75 -10.8398 1312.5 -4.15582 1307.58 1.86051C1299.22 12.978 1290.69 23.9754 1281.68 34.5753C1275.45 41.7919 1268.07 47.9582 1262.39 55.6475C1261.31 56.9752 1260.21 58.288 1259.14 59.6158C1251.29 69.443 1244.61 80.2004 1236.15 89.54C1227.8 98.4444 1218.37 106.329 1210.61 115.766C1204.23 124.565 1197.47 133.215 1188.94 140.064C1185.42 143.522 1181.66 146.71 1177.65 149.568C1172.76 153.109 1169.14 158.068 1164.21 161.541C1163.91 160.168 1157.88 171.383 1155.16 172.006C1153.17 172.943 1152 174.954 1150.67 176.619C1146.95 181.878 1142.83 186.844 1139.2 192.17C1147.99 191.345 1156.73 193.265 1165.17 195.546C1173.42 197.459 1181.74 199.402 1190.25 199.829C1199.01 200.437 1207.8 199.867 1216.56 200.655C1231.5 201.705 1246 206.071 1259.76 211.795C1266.3 215.118 1272.79 218.614 1278.8 222.852C1294.57 234.142 1311.99 242.806 1328.85 252.289C1335.53 256.084 1342.53 259.265 1349.57 262.341C1355.21 264.816 1361.2 266.302 1367.07 268.11C1380.37 272.28 1394.37 273.113 1407.94 276.031C1418.78 278.282 1429.38 281.515 1440 284.643V204.173V56.8777V27.7038C1435.17 23.5103 1430.25 19.3244 1424.58 16.2712Z" fill="#E7E7E7"/>
<path d="M136.355 243.038C144.043 238.657 151.633 234.059 159.65 230.293C153.898 237.277 147.485 243.668 141.583 250.517C133.288 259.789 125.908 269.819 117.785 279.241C109.258 289.758 100.55 300.156 92.7954 311.273C86.1804 320.185 79.5804 329.112 73.4229 338.354C70.0179 342.758 67.6104 348.054 63.1029 351.497C55.8804 349.262 48.3429 348.429 40.8954 347.281C31.1154 345.826 21.2004 345.826 11.3379 345.571C15.7479 345.286 20.2254 345.961 24.5904 345.173C28.9254 343.313 32.0979 339.607 35.6754 336.644C41.6529 331.108 47.8629 325.826 53.8329 320.283C64.3779 310.748 72.6804 299.113 82.2279 288.656C87.4029 283.577 92.3229 278.258 97.3779 273.06C104.585 265.656 112.715 259.197 121.325 253.495C126.335 250.015 131.008 246.031 136.355 243.038Z" fill="#C7C7C7"/>
<path d="M892.208 235.395C907.321 231.907 923.033 232.762 938.288 234.818C954.151 237.263 968.783 244.24 984.233 248.283C991.036 250.054 997.801 252.086 1004.81 252.942C1018.96 254.847 1032.48 259.693 1045.32 265.807C1056.71 270.563 1066.88 277.622 1077.29 284.156C1089.35 292.355 1102.38 299.167 1113.53 308.664C1122.75 316.151 1131.08 324.65 1140.24 332.219C1154.48 344.942 1168.9 357.747 1185.67 367.094C1198.93 374.896 1212.42 382.293 1225.76 389.952C1231.98 393.058 1237.55 397.386 1243.99 400.064C1234.67 407.596 1225.46 415.255 1216.49 423.192C1206 432.021 1194.86 440.041 1184.34 448.818C1178.74 453.266 1172.93 457.437 1167.16 461.638C1156.58 468.75 1145.63 475.313 1134.41 481.367C1127.7 485.178 1120.79 488.636 1114.26 492.77C1106.81 497.293 1099.71 502.387 1092.01 506.498C1082.09 512.342 1071.84 517.585 1061.36 522.349C1054.77 525.162 1047.89 527.233 1041.33 530.121C1028.81 535.177 1016.06 539.768 1004.1 546.092C997.066 550.21 990.008 554.359 983.446 559.205C963.181 575.146 944.956 593.795 922.951 607.463C910.426 615.062 896.896 620.763 884.123 627.897C873.135 634.049 861.683 639.307 850.028 644.056C836.611 650.192 822.803 655.548 808.598 659.569C800.206 661.565 791.693 663.673 783.001 663.418C764.783 663.335 746.468 662.87 728.431 660.132C715.043 656.989 702.076 652.128 689.551 646.479C676.553 641.04 664.373 633.884 652.276 626.72C639.908 619.766 628.493 611.274 616.096 604.38C606.481 597.846 596.37 592.129 586.478 586.046C575.663 579.639 566.543 570.87 557.521 562.22C562.651 560.277 566.821 556.639 571.231 553.503C578.866 547.667 586.313 541.583 593.768 535.514C605.461 525.5 616.598 514.855 627.811 504.307C637.096 494.278 645.998 483.835 653.926 472.68C662.408 460.925 671.138 449.358 679.576 437.565C686.866 427.76 694.366 418.106 701.753 408.376C715.808 390.635 730.898 373.748 745.508 356.472C753.893 346.397 763.051 337.013 772.148 327.598C779.236 319.932 786.068 312.025 793.313 304.501C803.123 294.313 812.828 284.021 822.818 273.999C832.486 264.217 843.466 255.762 855.188 248.576C866.468 241.652 879.308 237.931 892.208 235.395Z" fill="#464646"/>
<path d="M1415.99 312.624C1405.27 312.804 1394.65 314.515 1384.07 316.18C1373.62 317.763 1363.7 321.544 1353.72 324.867C1346.81 327.343 1339.93 329.931 1333.26 332.984C1325.74 336.382 1318.93 341.086 1311.89 345.332C1299.94 352.556 1289.1 361.423 1278.36 370.312C1266.92 380.252 1255.23 389.899 1243.99 400.064C1234.66 407.595 1225.45 415.255 1216.48 423.191C1206 432.021 1194.86 440.04 1184.34 448.817C1178.74 453.266 1172.93 457.437 1167.16 461.637C1156.57 468.749 1145.62 475.313 1134.41 481.367C1127.7 485.178 1120.78 488.636 1114.26 492.769C1106.81 497.293 1099.71 502.386 1092.01 506.497C1082.09 512.341 1071.84 517.585 1061.36 522.348C1054.77 525.162 1047.89 527.232 1041.33 530.12C1028.81 535.176 1016.05 539.767 1004.1 546.091C997.065 550.21 990.007 554.358 983.445 559.204C963.18 575.145 944.955 593.794 922.95 607.462C910.425 615.061 896.895 620.763 884.122 627.897C873.135 634.048 861.682 639.307 850.027 644.055C836.61 650.192 822.802 655.548 808.597 659.569C800.205 661.564 791.692 663.672 783 663.417C764.782 663.335 746.467 662.87 728.43 660.131C715.042 656.988 702.075 652.127 689.55 646.478C676.552 641.04 664.372 633.883 652.275 626.719C639.907 619.765 628.492 611.273 616.095 604.379C606.48 597.845 596.37 592.129 586.477 586.045C575.662 579.639 566.542 570.869 557.52 562.22C548.925 553.878 539.655 546.271 530.895 538.109C521.355 529.618 512.197 520.63 501.75 513.226C490.042 504.509 477.405 496.723 463.417 492.274C455.257 489.401 446.745 487.788 438.33 485.86C432.015 484.337 425.872 482.192 419.55 480.692C412.2 478.936 405.067 476.356 397.657 474.818C370.042 469.177 343.38 459.754 315.817 453.918C307.282 452.433 298.785 450.738 290.205 449.545C278.55 448.014 266.925 446.041 255.6 442.838C249.232 440.993 242.812 439.335 236.52 437.257C226.875 434.091 217.807 429.478 208.537 425.397C196.567 419.486 184.935 412.922 173.032 406.89C160.432 399.726 147.397 393.327 135.15 385.556C125.902 379.464 116.88 372.975 106.935 368.032C93.2925 360.245 78.2175 355.496 63.105 351.498C55.8825 349.263 48.345 348.43 40.8975 347.282C31.1175 345.827 21.2025 345.827 11.34 345.572C7.56 345.497 3.78 345.467 0 345.399V767.158V900.327H1440V750.219V315.513C1432.09 313.967 1424.05 312.857 1415.99 312.624Z" fill="#1F1F1F"/>
</svg>
