<svg aria-hidden="true" style="position: absolute; width: 0; height: 0; overflow: hidden;" version="1.1" xmlns="http://www.w3.org/2000/svg" xmlns:xlink="http://www.w3.org/1999/xlink">
<defs>
<symbol id="icon-robot-arm" viewBox="0 0 32 32">
<title>robot-arm</title>
<path d="M4.912 29.997c-0.666-0.237-0.883-0.73-0.864-1.408 0.026-0.89 0.006-1.786 0.006-2.678 0-0.89 0.41-1.296 1.309-1.299 1.395 0 2.787 0 4.182-0.003 0.096 0 0.227 0.051 0.278-0.048 0.038-0.077-0.061-0.163-0.106-0.237-2.173-3.674-4.342-7.35-6.509-11.024-0.045-0.077-0.093-0.157-0.144-0.24 2.582 1.814 5.014 1.722 7.312-0.509 0.771 1.315 1.555 2.659 2.336 4.003 1.526 2.608 3.050 5.216 4.566 7.827 0.099 0.17 0.208 0.237 0.406 0.237 1.475-0.010 2.95-0.006 4.426-0.003 0.931 0 1.322 0.397 1.322 1.334 0 0.893-0.019 1.786 0.010 2.675 0.019 0.675-0.218 1.146-0.874 1.373h-17.658zM29.901 10.752c-0.102 0.448-0.406 0.723-0.79 0.95-1.651 0.979-3.296 1.974-4.941 2.96-0.685 0.413-1.2 0.317-1.696-0.301-0.662-0.832-1.331-1.661-1.994-2.499-0.106-0.138-0.218-0.186-0.39-0.182-0.656 0.010-1.309 0.010-1.968 0.003-0.614-0.006-0.995-0.304-1.117-0.902-0.042-0.202-0.163-0.16-0.278-0.16-1.309-0.003-2.624 0-3.933 0-0.384 0-0.768-0.010-1.149 0.003-0.214 0.010-0.262-0.035-0.186-0.256 0.333-0.902 0.454-1.834 0.301-2.79-0.054-0.342-0.134-0.682-0.282-0.995-0.099-0.208-0.064-0.272 0.179-0.269l4.947 0.010c0.24 0 0.384-0.010 0.442-0.31 0.096-0.477 0.525-0.771 1.027-0.774 0.662-0.010 1.331-0.010 1.994 0.003 0.208 0.006 0.33-0.070 0.454-0.224 0.618-0.787 1.254-1.562 1.869-2.352 0.23-0.294 0.499-0.522 0.838-0.659h0.435c0.205 0.109 0.413 0.211 0.614 0.333 1.6 0.954 3.19 1.92 4.797 2.87 0.39 0.23 0.704 0.502 0.822 0.954v0.326c-0.096 0.189-0.147 0.403-0.314 0.563-0.41 0.387-0.902 0.429-1.45 0.099-1.398-0.835-2.794-1.67-4.186-2.515-0.189-0.115-0.291-0.125-0.438 0.067-0.682 0.877-1.379 1.741-2.077 2.605-0.090 0.112-0.134 0.227-0.131 0.371 0.006 0.518 0.010 1.040 0 1.555-0.003 0.154 0.042 0.278 0.141 0.397 0.698 0.864 1.395 1.731 2.080 2.605 0.138 0.173 0.227 0.182 0.413 0.067 1.392-0.845 2.79-1.68 4.189-2.518 0.298-0.176 0.598-0.288 0.957-0.195 0.474 0.122 0.694 0.458 0.822 0.89-0.003 0.090-0.003 0.179-0.003 0.272zM6.218 12.56c-2.269 0.003-4.093-1.821-4.102-4.093-0.003-2.259 1.83-4.102 4.093-4.106 2.256-0.003 4.102 1.843 4.106 4.099 0.006 2.256-1.83 4.096-4.096 4.099zM6.205 6.086c-1.309 0.006-2.384 1.085-2.378 2.381 0.010 1.302 1.098 2.381 2.39 2.374 1.309-0.010 2.371-1.085 2.368-2.39 0-1.306-1.069-2.371-2.381-2.365zM6.208 9.603c-0.637-0.003-1.139-0.506-1.136-1.146 0.003-0.637 0.515-1.146 1.146-1.146 0.627 0.003 1.149 0.528 1.146 1.152-0.003 0.634-0.522 1.142-1.155 1.139z"></path>
</symbol>
</defs>
</svg>
